<?xml version="1.0" encoding="utf-8"?>
<!-- Generator: Adobe Illustrator 21.1.0, SVG Export Plug-In . SVG Version: 6.00 Build 0)  -->
<svg version="1.1" id="Layer_1" xmlns="http://www.w3.org/2000/svg" xmlns:xlink="http://www.w3.org/1999/xlink" x="0px" y="0px"
	 viewBox="0 0 70.3 67.9" style="enable-background:new 0 0 70.3 67.9;" xml:space="preserve">
<style type="text/css">
	.st0{fill:#FFFFFF;}
</style>
<title>flower_015-morning_glory-blossom-nature-spring</title>
<desc>Created with Sketch.</desc>
<g>
	<g transform="translate(-560.000000, -199.000000)">
		<g transform="translate(564.000000, 204.000000)">
			<path class="st0" d="M57.3,49.4c-0.8,0.9-1.9,1.5-4,2.3c-0.1,0-0.2,0.1-0.4,0.2c-0.2,0.1-0.2,0.1-0.4,0.2c-1.7,0.6-2.6,1-3.4,1.6
				c-0.8,0.5-1.4,1.2-2.3,2.4c-0.2,0.2-0.8,1-0.7,0.9c-1.5,1.9-2.4,2.7-3.6,3.2c-4.3,1.7-7.7,0.4-10.5-4.7c-0.3-0.5-0.9-0.7-1.4-0.4
				c-0.5,0.3-0.7,0.9-0.4,1.4c3.2,5.9,7.7,7.7,13,5.6c1.6-0.6,2.7-1.7,4.4-3.8c0,0,0.6-0.7,0.7-0.9c0.8-1,1.4-1.6,1.9-2
				c0.6-0.5,1.4-0.8,2.9-1.4c0.2-0.1,0.2-0.1,0.4-0.2c0.2-0.1,0.3-0.1,0.4-0.2c2.4-0.9,3.7-1.6,4.8-2.9c3.7-4.4,3.3-9.2-1.3-14
				c-0.4-0.4-1-0.4-1.4,0c-0.4,0.4-0.4,1,0,1.4C60,42.2,60.3,45.8,57.3,49.4z M-2,27.9c0.1-1.3,0.6-2.4,2-4.5c1.3-2,1.7-2.5,2-3.6
				c0-0.1,0.1-0.1,0.1-0.2c0.3-1,0.4-1.9,0.5-4c0-0.5,0-0.7,0-1c0.1-1.9,0.4-3.2,1-4.1c2.5-4,6-4.8,11.2-2.4c0.5,0.2,1.1,0,1.3-0.5
				c0.2-0.5,0-1.1-0.5-1.3C9.7,3.4,5,4.6,2,9.4c-0.8,1.3-1.2,2.8-1.3,5.1c0,0.3,0,0.5,0,1c-0.1,1.9-0.2,2.7-0.4,3.5
				c0,0.1,0,0.1-0.1,0.2c-0.3,0.8-0.6,1.3-1.8,3.1C-3.2,24.6-3.8,26-4,27.7c-0.4,5.7,2.7,9.4,9.3,10.6c0.5,0.1,1.1-0.3,1.2-0.8
				c0.1-0.5-0.3-1.1-0.8-1.2C0.1,35.3-2.3,32.5-2,27.9z"/>
			<path class="st0" d="M58.7,10.5c0.6,1,0.9,2.2,1,4.1c0,0.3,0,0.5,0,1c0.1,2.1,0.2,3,0.5,4c0,0.1,0,0.1,0.1,0.2
				c0.4,1,0.7,1.6,2,3.6c1.4,2.1,1.9,3.2,2,4.5c0.3,4.7-2,7.5-7.7,8.5c-0.5,0.1-0.9,0.6-0.8,1.2c0.1,0.5,0.6,0.9,1.2,0.8
				c6.6-1.2,9.7-4.9,9.3-10.6c-0.1-1.7-0.8-3.1-2.4-5.5c-1.2-1.8-1.5-2.3-1.8-3.1c0-0.1,0-0.1-0.1-0.2c-0.3-0.8-0.3-1.6-0.4-3.5
				c0-0.5,0-0.7,0-1c-0.1-2.3-0.4-3.7-1.3-5.1c-3-4.8-7.7-6-13.8-3.1c-0.5,0.2-0.7,0.8-0.5,1.3c0.2,0.5,0.8,0.7,1.3,0.5
				C52.6,5.6,56.2,6.5,58.7,10.5z"/>
			<path class="st0" d="M22-2.9c0.8-0.2,1.8-0.2,3,0.1c0.6,0.1,1.1,0.2,2,0.5c2.2,0.6,3,0.8,4.1,0.8c1.1,0,1.9-0.2,4.1-0.8
				c1-0.3,1.5-0.4,2-0.5c1.2-0.2,2.1-0.3,3-0.1c4.5,1.1,6.5,4.2,5.7,9.9c-0.1,0.5,0.3,1.1,0.9,1.1c0.5,0.1,1.1-0.3,1.1-0.9
				c0.9-6.6-1.7-10.7-7.2-12.1c-1.2-0.3-2.4-0.3-3.9,0c-0.6,0.1-1.2,0.3-2.2,0.6c-2,0.6-2.7,0.7-3.6,0.7c-0.9,0-1.6-0.2-3.6-0.7
				c-1-0.3-1.6-0.4-2.2-0.6c-1.5-0.3-2.7-0.3-3.9,0C16-3.4,13.4,0.7,14.3,7.3c0.1,0.5,0.6,0.9,1.1,0.9s0.9-0.6,0.9-1.1
				C15.5,1.4,17.5-1.7,22-2.9z M19.8,60.2c-1.2-0.5-2.1-1.3-3.6-3.2c0,0-0.6-0.7-0.7-0.9c-0.9-1.1-1.6-1.8-2.3-2.4
				c-0.8-0.6-1.7-1-3.4-1.6C9.6,52,9.6,52,9.4,51.9c-0.2-0.1-0.3-0.1-0.4-0.2c-2.1-0.8-3.2-1.4-4-2.3C2,45.8,2.3,42.2,6.2,38
				c0.4-0.4,0.4-1,0-1.4c-0.4-0.4-1-0.4-1.4,0c-4.6,4.9-5,9.7-1.3,14c1.1,1.3,2.4,2,4.8,2.9c0.1,0,0.3,0.1,0.4,0.2
				c0.2,0.1,0.2,0.1,0.4,0.2c1.5,0.6,2.3,0.9,2.9,1.4c0.6,0.4,1.1,1,1.9,2c0.2,0.2,0.7,0.9,0.7,0.9c1.7,2.1,2.8,3.2,4.4,3.8
				c5.3,2.1,9.8,0.3,13-5.6c0.3-0.5,0.1-1.1-0.4-1.4c-0.5-0.3-1.1-0.1-1.4,0.4C27.6,60.5,24.2,61.9,19.8,60.2z"/>
			<path class="st0" d="M32.4,26c0,0.6,0.5,1,1.1,0.9c0.6,0,1-0.5,0.9-1.1L32.2-2.1c0-0.6-0.5-1-1.1-0.9c-0.6,0-1,0.5-0.9,1.1
				L32.4,26z M34.4,29.3c-0.5,0.2-0.8,0.8-0.5,1.3c0.2,0.5,0.8,0.8,1.3,0.5L61,20.4c0.5-0.2,0.8-0.8,0.5-1.3
				c-0.2-0.5-0.8-0.8-1.3-0.5L34.4,29.3z M31.9,32.2c-0.4-0.4-1-0.5-1.4-0.1c-0.4,0.4-0.5,1-0.1,1.4l18.2,21.2
				c0.4,0.4,1,0.5,1.4,0.1c0.4-0.4,0.5-1,0.1-1.4L31.9,32.2z M28.4,30.7c0.3-0.5,0.1-1.1-0.3-1.4c-0.5-0.3-1.1-0.1-1.4,0.3
				L12.1,53.6c-0.3,0.5-0.1,1.1,0.3,1.4c0.5,0.3,1.1,0.1,1.4-0.3L28.4,30.7z M28.7,26.9c0.5,0.1,1.1-0.2,1.2-0.7
				c0.1-0.5-0.2-1.1-0.7-1.2L1.9,18.5c-0.5-0.1-1.1,0.2-1.2,0.7s0.2,1.1,0.7,1.2L28.7,26.9z"/>
			<path class="st0" d="M27.9,25.8c0,0.6,0.4,1,0.9,1.1c0.6,0,1-0.4,1.1-0.9l2.3-27.9c0-0.6-0.4-1-0.9-1.1c-0.6,0-1,0.4-1.1,0.9
				L27.9,25.8z M27.1,31.1c0.5,0.2,1.1,0,1.3-0.5c0.2-0.5,0-1.1-0.5-1.3L2.1,18.5c-0.5-0.2-1.1,0-1.3,0.5c-0.2,0.5,0,1.1,0.5,1.3
				L27.1,31.1z M31.9,33.5c0.4-0.4,0.3-1.1-0.1-1.4c-0.4-0.4-1.1-0.3-1.4,0.1L12.2,53.4c-0.4,0.4-0.3,1.1,0.1,1.4
				c0.4,0.4,1.1,0.3,1.4-0.1L31.9,33.5z M35.7,29.7c-0.3-0.5-0.9-0.6-1.4-0.3c-0.5,0.3-0.6,0.9-0.3,1.4l14.6,23.9
				c0.3,0.5,0.9,0.6,1.4,0.3c0.5-0.3,0.6-0.9,0.3-1.4L35.7,29.7z M33.2,24.9c-0.5,0.1-0.9,0.7-0.7,1.2c0.1,0.5,0.7,0.9,1.2,0.7
				l27.2-6.5c0.5-0.1,0.9-0.7,0.7-1.2s-0.7-0.9-1.2-0.7L33.2,24.9z"/>
			<path class="st0" d="M16,6.4C15.7,6,15,5.9,14.6,6.2c-0.4,0.3-0.5,0.9-0.2,1.4l13,18c0.3,0.4,0.9,0.5,1.4,0.2
				c0.4-0.3,0.5-0.9,0.2-1.4L16,6.4z M48,7.6c0.3-0.4,0.2-1.1-0.2-1.4c-0.4-0.3-1.1-0.2-1.4,0.2L33.2,24.3c-0.3,0.4-0.2,1.1,0.2,1.4
				c0.4,0.3,1.1,0.2,1.4-0.2L48,7.6z M56.7,38.4c0.5,0.2,1.1-0.1,1.3-0.6s-0.1-1.1-0.6-1.3l-21.1-6.9c-0.5-0.2-1.1,0.1-1.3,0.6
				c-0.2,0.5,0.1,1.1,0.6,1.3L56.7,38.4z M30.2,56.2c0,0.6,0.4,1,1,1c0.6,0,1-0.4,1-1L32.2,34c0-0.6-0.4-1-1-1c-0.6,0-1,0.4-1,1
				L30.2,56.2z M5,36.5c-0.5,0.2-0.8,0.7-0.6,1.3c0.2,0.5,0.7,0.8,1.3,0.6l21.1-6.8c0.5-0.2,0.8-0.7,0.6-1.3
				c-0.2-0.5-0.7-0.8-1.3-0.6L5,36.5z"/>
		</g>
	</g>
</g>
</svg>
