<?xml version="1.0" encoding="utf-8"?>
<!-- Generator: Adobe Illustrator 21.1.0, SVG Export Plug-In . SVG Version: 6.00 Build 0)  -->
<svg version="1.1" id="Layer_1" xmlns="http://www.w3.org/2000/svg" xmlns:xlink="http://www.w3.org/1999/xlink" x="0px" y="0px"
	 viewBox="0 0 672.3 275.7" style="enable-background:new 0 0 672.3 275.7;" xml:space="preserve">
<style type="text/css">
	.st0{fill:#FFFFFF;}
	.st1{fill:#FFFFFF;stroke:#FFFFFF;stroke-width:1.125;}
	.st2{fill:#FFFFFF;stroke:#FFFFFF;stroke-width:0.25;}
</style>
<g>
	<path class="st0" d="M112,49.5c-1,1.8-2.4,2.6-5.7,2.6H91.8V79h3.3l5.1-7.5l9.7,7.9c-1,1.8-2.3,2.6-5.6,2.6H3.3l-0.7-3h17.1V52.2
		H1.4l-0.7-3h19v-24C14.5,30.9,8.9,35.8,3.2,39.3l-1.4-1.5C10,30,18.9,16,24.9,0.8l11.5,5.8c-0.5,1.1-1.2,1.6-3,1.6
		c-0.4,0-1,0-1.5-0.1c-2,3.5-4.3,6.9-6.5,10.1l2.7,1.2h62.2l5.3-7.5l10.4,7.9c-1,1.9-2.4,2.6-5.7,2.6h-8.7v26.8h4.6l5.3-7.4
		L112,49.5z M21.8,87.7c0.4,2.4,0.6,4.6,0.6,6.6c0,14.8-9.5,22.6-15.9,22.6c-2.3,0-4.2-1-4.2-3.4c0-2,1.4-3.9,3.2-5.1
		C12,105.8,19,97.9,19.7,87.5L21.8,87.7z M26.8,22.4v26.8h13.8V22.4H26.8z M26.8,52.2V79h13.8V52.2H26.8z M37.9,89
		c6.1,6.5,8.2,12.9,8.2,17.6c0,5.6-2.7,9.2-5.5,9.2c-1.3,0-2.5-0.8-3.4-2.4c0.6-2.9,0.9-6.1,0.9-9.5c0-5.2-0.7-10.5-1.9-14.4
		L37.9,89z M62.8,22.4H47.7v26.8h15.1V22.4z M62.8,52.2H47.7V79h15.1V52.2z M59.8,88.4c11.8,7.4,15.6,15.5,15.6,21
		c0,3.9-2,6.5-4.3,6.5c-1.1,0-2.3-0.5-3.3-1.8c0-7.9-4.6-18.6-9.3-24.8L59.8,88.4z M84.5,22.4H69.9v26.8h14.6V22.4z M84.5,79V52.2
		H69.9V79H84.5z M83.5,87c20.2,7.2,26.5,17.9,26.5,24.4c0,3.5-1.8,5.8-4.2,5.8c-0.9,0-2-0.5-3.2-1.4c-2.4-9.4-11.9-21.1-20.1-27.5
		L83.5,87z"/>
	<path class="st0" d="M199.9,26.5c1.7,5.8,2.3,11,2.3,15.5c0,4.9-0.9,15.9-8.3,15.9c-1.8,0-3.3-1-3.3-3.4c0-1.8,0.9-3.6,2.3-5
		c2.6-3.6,5.1-12.1,5.1-20.1c0-1,0-1.9-0.1-2.9H199.9z M208.4,1.3l12.7,1.3c-0.2,1.7-1.4,2.6-5.1,3.1v108.5c0,0.4-0.9,3.1-7.6,3.1
		V1.3z M219.1,20.8c9.9,5.4,13.1,11.5,13.1,15.9c0,3.4-1.9,5.6-4,5.6c-0.9,0-2.1-0.5-3.1-1.8c-0.4-5.9-3.8-14.1-7.1-18.9L219.1,20.8
		z M291.2,39.4l10,7.5c-0.9,1.9-2.3,2.6-5.6,2.6h-68.3l-0.8-3h31.1v-12h-21.7l-0.7-3h22.4V19.7h-27.2l-0.7-3h27.9V1.4l12.6,1.1
		c-0.1,1.7-1.4,2.5-5,3.1v11h18.3l5.2-7l9.9,7.4c-0.9,1.9-2.3,2.6-5.5,2.6h-27.9v11.9h14l4.9-6.8l9.6,7.1c-1,1.9-2.3,2.6-5.5,2.6
		h-23v12h20.9L291.2,39.4z M279.1,60.7l3.8-5.1l10.2,7.8c-0.8,1-2.7,2.1-5.1,2.6v39.5c0,6.5-1.5,10.9-11,12c0-6.6-3-7.9-10.2-8.5
		v-1.8h11.6c1.5,0,1.9-0.4,1.9-2V94.4h-36.6v19.8c0,0.1-0.8,2.9-7.6,2.9V56.7l8.2,4H279.1z M280.2,63.7h-36.6v12.1h36.6V63.7z
		 M243.7,91.4h36.6V78.8h-36.6V91.4z"/>
	<path class="st0" d="M372.4,90c12-14.8,20.2-37.5,23.7-54.2l12.7,4.8c-0.5,1.5-1.4,2.1-4.5,2c-5.3,15.4-15.3,36-30.6,49.2L372.4,90
		z M424.1,2.5l13.5,1.2c-0.1,1.9-0.8,2.7-5.3,3.4v96.2c0,7.1-1.9,12.4-14.8,13.8c0-6.8-4.6-8-16.6-9v-2h19.9c2.5,0,3.3-0.9,3.3-3.1
		V2.5z M451,36.8c24.9,17.1,32.5,34.7,32.5,44.7c0,4.9-1.9,8-4.5,8c-1.1,0-2.4-0.6-3.7-1.9C474,71.5,461.1,50,449.5,37.9L451,36.8z"
		/>
	<path class="st0" d="M600.3,25.4l8.5,8.3c-1,1-2,1.5-4.4,1.8c-1.5,16.8-4,33-10.5,47.1c8.9,6.1,12.1,12.4,12.1,16.2
		c0,2.6-1.3,4.2-3.3,4.2c-0.8,0-1.8-0.4-2.7-0.9c-2-4-5.5-8.4-9.6-12.5c-6.3,10.9-15.4,20.2-29,27.5l-1.1-2.1
		c11.9-8,19.8-18.1,25.2-29.8c-4.9-4.1-10.1-7.9-15.1-10.8c-0.5,2.6-1.1,5.1-1.5,7.2c-1,0.8-2.4,1.1-4.2,1.1c-1.2,0-2.6-0.2-4-0.6
		c2.8-10.9,7-30.6,10.3-48.7h-10.9l-0.8-3h12.3c2-11.4,3.8-22,4.6-29.1L588.4,3c-0.2,1.6-1.3,2.5-4.6,2.7c-0.9,6-2.6,14.9-4.4,24.8
		h16.3L600.3,25.4z M578.8,33.5c-2.5,13-5.3,27.4-7.7,38.7c6.9,2,12.5,4.4,17.1,6.8c5.1-13.6,7.2-29,8.3-45.5H578.8z M662.7,103.3
		l8.7,7.6c-0.8,1.9-2.1,2.8-5.5,2.8h-69.7l-0.7-3h17.3V8.3l8.9,4h27.9l4.2-5.6l10.3,8.5c-0.8,1.1-2.5,1.9-5.5,2.2v92.2L662.7,103.3z
		 M651,15.3h-30.5v28.5H651V15.3z M651,76.5V46.8h-30.5v29.7H651z M620.5,79.5v31.1H651V79.5H620.5z"/>
</g>
<g>
	<path class="st1" d="M36.2,89.7c1.2,3.9,1.9,9.1,1.9,14.4c0,3.4-0.4,6.6-0.9,9.5c0.9,1.6,2.1,2.4,3.4,2.4c2.7,0,5.5-3.6,5.5-9.2
		c0-4.8-2.1-11.1-8.2-17.6L36.2,89.7z M58.5,89.4c4.6,6.1,9.3,16.9,9.3,24.8c1.1,1.2,2.3,1.8,3.3,1.8c2.3,0,4.3-2.6,4.3-6.5
		c0-5.5-3.8-13.6-15.6-21L58.5,89.4z M82.5,88.3c8.2,6.4,17.7,18.1,20.1,27.5c1.2,0.9,2.3,1.4,3.2,1.4c2.4,0,4.2-2.2,4.2-5.8
		c0-6.5-6.3-17.1-26.5-24.4L82.5,88.3z M19.7,87.5C19,97.9,12,105.8,5.6,108.4c-1.8,1.2-3.2,3.1-3.2,5.1c0,2.4,1.9,3.4,4.2,3.4
		c6.4,0,15.9-7.9,15.9-22.6c0-2-0.2-4.2-0.6-6.6L19.7,87.5z M69.9,79V52.2h14.6V79H69.9z M84.5,49.2H69.9V22.4h14.6V49.2z
		 M40.6,22.4v26.8H26.8V22.4H40.6z M40.6,52.2V79H26.8V52.2H40.6z M62.8,79H47.7V52.2h15.1V79z M62.8,49.2H47.7V22.4h15.1V49.2z
		 M101.8,41.8l-5.3,7.4h-4.6V22.4h8.7c3.3,0,4.8-0.8,5.7-2.6l-10.5-7.9l-5.3,7.5H28.1l-2.7-1.2c2.3-3.2,4.5-6.6,6.5-10.1
		c0.6,0.1,1.2,0.1,1.5,0.1c1.8,0,2.5-0.5,3-1.6L24.9,0.8C18.9,16,10,30,1.8,37.8l1.4,1.5c5.7-3.5,11.3-8.4,16.5-14.1v24h-19l0.7,3
		h18.3V79H2.6l0.7,3h101.1c3.3,0,4.6-0.9,5.6-2.6l-9.7-7.9L95.1,79h-3.3V52.2h14.5c3.3,0,4.8-0.9,5.7-2.6L101.8,41.8z"/>
	<path class="st1" d="M286.1,46.5h-20.9v-12h23c3.2,0,4.5-0.8,5.5-2.6l-9.6-7.1l-4.9,6.8h-14V19.7h27.9c3.2,0,4.5-0.8,5.5-2.6
		l-9.9-7.4l-5.2,7h-18.3v-11c3.6-0.6,4.9-1.4,5-3.1l-12.6-1.1v15.2h-27.9l0.7,3h27.2v11.9h-22.4l0.7,3h21.7v12h-31.1l0.8,3h68.3
		c3.3,0,4.6-0.8,5.6-2.6l-10-7.5L286.1,46.5z M243.7,78.8h36.6v12.6h-36.6V78.8z M280.3,75.8h-36.6V63.7h36.6V75.8z M244.3,60.7
		l-8.2-4V117c6.8,0,7.6-2.8,7.6-2.9V94.4h36.6v10.8c0,1.6-0.4,2-1.9,2h-11.6v1.8c7.2,0.6,10.2,1.9,10.2,8.5c9.5-1.1,11-5.5,11-12
		V65.9c2.4-0.5,4.3-1.6,5.1-2.6l-10.2-7.8l-3.8,5.1H244.3z M197.7,26.5c0.1,1,0.1,1.9,0.1,2.9c0,8-2.5,16.5-5.1,20.1
		c-1.3,1.4-2.3,3.2-2.3,5c0,2.4,1.5,3.4,3.3,3.4c7.4,0,8.3-11,8.3-15.9c0-4.5-0.6-9.8-2.3-15.5H197.7z M217.9,21.7
		c3.3,4.8,6.8,13,7.1,18.9c0.9,1.2,2.1,1.8,3.1,1.8c2.1,0,4-2.2,4-5.6c0-4.4-3.2-10.5-13.1-15.9L217.9,21.7z M208.4,117.3
		c6.6,0,7.6-2.8,7.6-3.1V5.7c3.7-0.5,4.9-1.4,5.1-3.1l-12.7-1.3V117.3z"/>
	<path class="st1" d="M449.5,37.9c11.6,12.1,24.6,33.6,25.9,49.7c1.3,1.2,2.6,1.9,3.7,1.9c2.6,0,4.5-3.1,4.5-8
		c0-10-7.6-27.6-32.5-44.7L449.5,37.9z M373.8,91.8c15.3-13.2,25.3-33.9,30.6-49.2c3.1,0.1,4-0.5,4.5-2l-12.7-4.8
		c-3.6,16.8-11.8,39.5-23.8,54.2L373.8,91.8z M424.1,103c0,2.2-0.8,3.1-3.3,3.1h-20v2c12,1,16.6,2.2,16.6,9
		c12.9-1.4,14.8-6.6,14.8-13.8V7.2c4.5-0.6,5.2-1.5,5.3-3.4l-13.5-1.2V103z"/>
	<path class="st1" d="M596.7,33.5c-1.1,16.5-3.2,31.9-8.3,45.5c-4.6-2.4-10.2-4.8-17.1-6.8c2.4-11.4,5.2-25.7,7.7-38.7H596.7z
		 M595.8,30.5h-16.3c1.8-9.9,3.4-18.8,4.4-24.8c3.3-0.2,4.4-1.1,4.6-2.7l-12.1-1.6c-0.8,7.1-2.6,17.8-4.6,29.1h-12.4l0.8,3h10.9
		c-3.3,18.1-7.5,37.9-10.3,48.7c1.4,0.4,2.9,0.6,4,0.6c1.8,0,3.2-0.4,4.2-1.1c0.5-2.1,1.1-4.6,1.5-7.2c5,2.9,10.2,6.6,15.1,10.8
		c-5.3,11.6-13.3,21.8-25.2,29.8l1.1,2.1c13.5-7.2,22.7-16.6,29-27.5c4.2,4.1,7.6,8.5,9.6,12.5c1,0.5,1.9,0.9,2.7,0.9
		c2,0,3.3-1.6,3.3-4.2c0-3.9-3.2-10.1-12.1-16.2c6.4-14.1,8.9-30.4,10.5-47.1c2.4-0.2,3.4-0.8,4.4-1.8l-8.6-8.3L595.8,30.5z
		 M651.2,79.5v31.1h-30.5V79.5H651.2z M651.2,43.8h-30.5V15.3h30.5V43.8z M620.7,76.5V46.8h30.5v29.7H620.7z M658.9,109.7V17.4
		c3-0.4,4.6-1.1,5.5-2.2L654,6.7l-4.2,5.6H622l-8.9-4v102.4h-17.3l0.7,3h69.7c3.3,0,4.6-0.9,5.5-2.8l-8.7-7.6L658.9,109.7z"/>
</g>
<g>
	<path class="st0" d="M27.5,181.4c-15.4,10-20,29.6-20,46.3c0,18.6,7.3,38.2,20,46.6v1.2c-15.9-9-24.5-25.7-24.5-47.8
		c0-22.4,9.7-38.2,24.5-47.8V181.4z"/>
</g>
<g>
	<path class="st2" d="M27.4,179.9c-14.8,9.6-24.5,25.4-24.5,47.8c0,22,8.6,38.7,24.5,47.8v-1.2c-12.7-8.4-20-28-20-46.6
		c0-16.7,4.6-36.3,20-46.3V179.9z"/>
</g>
<g>
	<path class="st0" d="M58.5,202.8h-0.2v43.5c0,8.4,0.7,9.2,8.5,9.5v1H47.6v-1c6.8-0.5,8.5-1.3,8.5-9.5v-40.6
		c0-7.3-0.8-10.4-8.5-10.4v-1H60l23.5,54.6l24-54.6h13.9v1c-7.1,0.2-8.5,1.7-8.5,10v40.5c0,9.3,0.7,9.5,8.5,9.9v1H100v-1
		c7.3-0.3,8.5-1.8,8.5-10v-47.2h-0.2l-25.9,58.3h-0.3L58.5,202.8z"/>
	<path class="st0" d="M147.3,249.4c0,5,1.3,6.1,6.9,6.3v1h-17.7v-1c4.9-0.1,6.6-1.3,6.6-6.3v-27.2c0-2.7-1.1-4.3-3.2-4.3
		c-1.2,0-2.6,0.6-3.8,1.1l-0.4-0.9l11.1-4.9h0.5V249.4z M144.5,192.8c1.7,0,3.1,1.2,3.1,3.2c0,1.9-1.3,3.3-3.1,3.3
		c-1.8,0-3.1-1.4-3.1-3.3C141.3,194.3,142.7,192.8,144.5,192.8z"/>
	<path class="st0" d="M192.3,227.7h-1c-0.2-7.1-3.8-12.8-10.8-12.8c-3.5,0-7.8,2.6-7.8,7.3c0,12.3,22.1,9.4,22.1,24.4
		c0,7.8-6.8,11.5-12.7,11.5c-5.9,0-7.7-1.9-10.3-1.9c-0.8,0-1.4,0.5-1.6,1.2h-1v-15.1h1c0.3,7.5,4.2,14.1,12.3,14.1
		c4.1,0,8.2-2.6,8.2-7.8c0-12.9-21.6-11.2-21.6-23.5c0-7.4,5.5-11.8,12-11.8c3.4,0,6,1.8,8.4,1.8c1.2,0,1.5-0.8,1.9-1.8h1V227.7z"/>
	<path class="st0" d="M234.1,227.7h-1c-0.2-7.1-3.8-12.8-10.8-12.8c-3.5,0-7.8,2.6-7.8,7.3c0,12.3,22.1,9.4,22.1,24.4
		c0,7.8-6.8,11.5-12.7,11.5c-5.9,0-7.7-1.9-10.3-1.9c-0.8,0-1.4,0.5-1.6,1.2h-1v-15.1h1c0.3,7.5,4.2,14.1,12.3,14.1
		c4.1,0,8.2-2.6,8.2-7.8c0-12.9-21.6-11.2-21.6-23.5c0-7.4,5.5-11.8,12-11.8c3.4,0,6,1.8,8.4,1.8c1.2,0,1.5-0.8,1.9-1.8h1V227.7z"/>
</g>
<g>
	<path class="st0" d="M325.2,256.8l-20-29.8h-9.4v19.6c0,7.7,0.4,9,8.5,9.2v1H283v-1c7-0.4,8.5-1.8,8.5-9.2v-41.5
		c0-8.2-0.8-9.4-8.5-9.8v-1h21.8c19.8,0,20.6,12.9,20.6,16.3c0,8.5-6.8,14.2-15.3,15.7l11.9,17.3c5.4,7.9,7.5,11.8,15.8,12.3v1
		H325.2z M295.9,224.9h2c15,0,21.8-5.1,21.8-14.1c0-9.1-5.8-14.6-15-14.6c-3.2,0-6.5,0.5-8.7,1V224.9z"/>
	<path class="st0" d="M379.6,246.9c0,3.3,0.1,6.4,3.2,6.4c1,0,2.6-0.6,3.5-1l0.4,0.9l-10.8,4.8h-0.5v-9.3
		c-5.2,5.8-10.2,9.3-15.1,9.3c-5.8,0-8.7-4.6-8.7-12.3v-22.9c0-6.3-0.9-7.2-6.7-7.4v-1h10.9v30.2c0,7.1,2.5,10,6.8,10
		c4,0,9.2-4.1,12.8-8.1v-23.7c0-5.8-0.5-7.2-6.7-7.4v-1h10.9V246.9z"/>
	<path class="st0" d="M415.8,214.5v1.9h-9.4v29.2c0,5.9,0.8,7.8,4.4,7.8c1.8,0,4.6-2,5.4-5.3h1c-1.2,5.3-4,9.2-8.7,9.2
		c-3.9,0-6.3-2.6-6.3-10.2v-30.7h-7.1v-1.2c6.3-1.3,8.9-4.9,10.5-13.6h0.8v12.9H415.8z"/>
	<path class="st0" d="M463,249.4c0,5.3,1,6.1,6.6,6.3v1h-17.5v-1c5.4-0.2,6.7-1.3,6.7-6.3v-22.3c0-7.6-2.5-10.6-6.7-10.6
		c-4.4,0-9.7,4.7-12.8,8.1v24.8c0,5.3,1.1,6,6.6,6.3v1h-17.5v-1c5.7-0.2,6.8-1.3,6.8-6.3v-49.6c0-2.5-1.1-4-3-4
		c-1.2,0-2.6,0.5-3.8,0.9l-0.4-0.9l10.7-4.6h0.6v31.3c5.4-5.8,9.9-9.3,15.1-9.3c5.3,0,8.6,3.8,8.6,12.2V249.4z"/>
	<path class="st0" d="M493,249.4c0,6.1,2.9,6.2,6.8,6.3v1h-17.5v-1c3.9-0.1,6.5-0.3,6.5-6.3v-49.1c0-3-1.2-4.3-3.2-4.3
		c-1.2,0-2.2,0.5-3.4,0.9l-0.4-0.9l10.6-4.8h0.6V249.4z"/>
	<path class="st0" d="M515.8,230.5c0,16.1,6.6,23.1,14.2,23.1c7.2,0,11.6-4.4,13.6-12.9l0.9,0.5c-1.4,9.1-7.2,17-15.7,17
		c-10.4,0-16.9-9.5-16.9-22.3c0-14.7,7.2-22.6,17.8-22.6c8.8,0,15.1,7.1,15.1,17.3H515.8z M538.7,228.3c0.3-7.9-4.4-12.9-10.8-12.9
		c-5.8,0-11.5,5.2-12,12.9H538.7z"/>
	<path class="st0" d="M584.1,227.7h-1c-0.2-7.1-3.8-12.8-10.8-12.8c-3.5,0-7.8,2.6-7.8,7.3c0,12.3,22.1,9.4,22.1,24.4
		c0,7.8-6.8,11.5-12.7,11.5c-5.9,0-7.7-1.9-10.3-1.9c-0.8,0-1.4,0.5-1.6,1.2h-1v-15.1h1c0.3,7.5,4.2,14.1,12.3,14.1
		c4.1,0,8.2-2.6,8.2-7.8c0-12.9-21.6-11.2-21.6-23.5c0-7.4,5.5-11.8,12-11.8c3.4,0,6,1.8,8.4,1.8c1.2,0,1.5-0.8,1.9-1.8h1V227.7z"/>
	<path class="st0" d="M625.9,227.7h-1c-0.2-7.1-3.8-12.8-10.8-12.8c-3.5,0-7.8,2.6-7.8,7.3c0,12.3,22.1,9.4,22.1,24.4
		c0,7.8-6.8,11.5-12.7,11.5c-5.9,0-7.7-1.9-10.3-1.9c-0.8,0-1.4,0.5-1.6,1.2h-1v-15.1h1c0.3,7.5,4.2,14.1,12.3,14.1
		c4.1,0,8.2-2.6,8.2-7.8c0-12.9-21.6-11.2-21.6-23.5c0-7.4,5.5-11.8,12-11.8c3.4,0,6,1.8,8.4,1.8c1.2,0,1.5-0.8,1.9-1.8h1V227.7z"/>
</g>
<g>
	<path class="st0" d="M643.8,274.3c11.8-7.7,19.9-26.1,19.9-46.6c0-17.5-5.3-36.7-19.9-46.3v-1.5c14.8,9.6,24.5,25.4,24.5,47.8
		c0,22.2-8.7,38.7-24.5,47.8V274.3z"/>
</g>
<g>
	<path class="st2" d="M643.8,275.5c15.8-9,24.5-25.6,24.5-47.8c0-22.4-9.7-38.2-24.5-47.8v1.5c14.6,9.6,19.9,28.8,19.9,46.3
		c0,20.5-8.1,39-19.9,46.6V275.5z"/>
</g>
</svg>
