<?xml version="1.0" encoding="utf-8"?>
<!-- Generator: Adobe Illustrator 21.1.0, SVG Export Plug-In . SVG Version: 6.00 Build 0)  -->
<svg version="1.1" id="Layer_1" xmlns="http://www.w3.org/2000/svg" xmlns:xlink="http://www.w3.org/1999/xlink" x="0px" y="0px"
	 viewBox="0 0 215.6 210.6" style="enable-background:new 0 0 215.6 210.6;" xml:space="preserve">
<style type="text/css">
	.st0{fill:#FFFFFF;}
</style>
<g>
	<path class="st0" d="M21.8,1.4c-2.4-0.6-4.7-0.6-7-0.6H1.1v40h7.7V27.2h5.9c2.5,0,4.6,0,6.9-0.5c7.2-1.5,9.8-7.4,9.8-12.6
		C31.4,5.9,25.8,2.4,21.8,1.4z M18.6,20.7c-1.3,0.4-2.7,0.3-4.3,0.3H8.8V7.1h5.8c2.5,0,5.1,0.1,7,1.6c0.7,0.6,2,2.2,2,5.1
		C23.6,15.2,23.4,19.6,18.6,20.7z"/>
	<path class="st0" d="M77.8,68.5v0.2c0.1,0,0.2,0,0.4,0c9.1,0,16.7,7.2,16.9,16.2l9.5-0.2c-0.3-14.1-12-25.3-26.2-25.3v-0.2
		c-14.6,0-26.5,11.6-26.5,25.9h9.5c0-4.5,1.8-8.7,5-11.7C69.3,70.5,73.3,68.7,77.8,68.5z"/>
	<path class="st0" d="M105.6,116.6h-0.2c-2-12.2-12.7-21.6-25.7-21.6l-0.2,9.3c8.3,0.2,15.1,6,16.5,13.7c-0.3,4.1-2.2,7.7-5,10.4
		c-3,3.1-7.3,4.9-12,4.9v9.3c13.1,0,23.9-9.3,26.1-21.4h0.6c0-0.2,0-0.2,0-0.3c0-1.1-0.1-2.3-0.2-3.4
		C105.6,117.3,105.6,116.9,105.6,116.6z"/>
	<path class="st0" d="M21,70.6c-1.8-2.5-4.7-3.9-8-3.9C7,66.7,0,71.6,0,82c0,8.3,4.7,14.7,12.7,14.7c4.8,0,7.3-2.3,8.3-3.5v2.3h6.9
		l-1.7-24.8L21,70.6z M14,90.5c-4.6,0-6.9-3.7-6.9-8.5c0-6.2,3.6-8.7,6.9-8.7c2.7,0,6.9,1.8,7,8.4C21.1,87.5,18.1,90.5,14,90.5z"/>
	<path class="st0" d="M21,180.3c-1.8-2.5-4.7-3.9-8-3.9c-6.1,0-13,4.9-13,15.3c0,8.3,4.7,14.7,12.7,14.7c4.8,0,7.3-2.3,8.3-3.5v2.3
		h6.9l-1.7-24.8L21,180.3z M14,200.2c-4.6,0-6.9-3.7-6.9-8.5c0-6.2,3.6-8.7,6.9-8.7c2.7,0,6.9,1.8,7,8.4
		C21.1,197.2,18.1,200.2,14,200.2z"/>
	<path class="st0" d="M3.7,123.3v28.3h6.7v-10.5c0-4.8,0.1-7.5,3-9.8c2.1-1.6,4-1.4,5.6-1.5v-7c-2.8-0.1-3.9,0.1-5.3,0.8
		c0.1,2.9-1.8,4.3-3.9,4.3c-2.1,0-3.8-1.6-3.8-3.7c0-0.3,0.1-0.7,0.2-1.1H3.7z"/>
	<rect x="134.1" y="90.6" class="st0" width="9.1" height="37.7"/>
	<ellipse class="st0" cx="138.7" cy="80.2" rx="5.1" ry="5"/>
	<path class="st0" d="M210.7,166.2h-2h-6.3h-3.5h-3.5v17.5h3.5v0h9.8v10.6v6.6c0,0.8-0.4,1.7-0.6,2.1c-0.4,0.7-1.2,0.8-2.2,0.8v-17
		h-5v0H189v0h-4.6v17.5h4.6h2.3h7.6h1.9h1.9l0.1,5.8c1.3,0.2,2,0.2,3.3,0.2c9.5,0,9.3-4.4,9.3-8.4l0.1-7.7v-28.2H210.7z
		 M198.9,191.7v1.7h-7.6v-1.7H198.9z M191.3,199.8v-1.7h7.6v1.7H191.3z M208.7,170.9v1.7h-6.3v-1.7H208.7z M202.4,179v-1.7h6.3v1.7
		H202.4z"/>
	<path class="st0" d="M191.3,183.7L191.3,183.7l2.6,0v-17.5h-2.6h-4.4h-5h-2.4H175v44.3h6.9v-26.8H191.3z M182,179v-1.7h5v1.7H182z
		 M186.9,170.9v1.7h-5v-1.7H186.9z"/>
	<polygon class="st0" points="215.5,110.6 215.5,103.7 175.8,103.7 175.8,110.6 192.2,110.6 192.2,115.3 175.8,115.3 175.8,122.2 
		215.5,122.2 215.5,115.3 199.1,115.3 199.1,110.6 	"/>
	<path class="st0" d="M208.5,78.7h-9.1c-0.3-1.9-2-3.3-4-3.3c-2,0-3.6,1.4-4,3.3h-9.3h-4.1h-2.8V88h6.9v-2.5h4.2
		c-2.8,3.7-6.4,7.7-8.4,9.6c1.5,2.3,2.4,3.9,3.5,6.5c2.7-2.4,11-12.1,13.3-16.1h2.5v0.1v7.5c0,4-0.2,8.4,9.3,8.4
		c1.4,0,5.1-0.1,6.5-0.2l0.1-6.3c-0.6,0.1-3.9,0-4.7,0c-1.8,0-3.1,0.1-3.7-0.8c-0.2-0.4-0.5-1.1-0.5-1.9v-6.6v-0.1h4.2V88h6.9v-9.4
		h-2.3H208.5z"/>
	<path class="st0" d="M185.8,6.6c1.1-1.5,1.1-1.5,2.1-2.8L182.2,0c-1.6,3.1-4.2,5.9-8,8.5c1.2,2.5,1.9,4.2,2.6,6.9
		C179.8,13.4,183.2,10.1,185.8,6.6z"/>
	<path class="st0" d="M207.8,38.1c0,0.8-0.2,0.9-0.5,1.3c-0.6,1-1.9,1.4-3.7,1.4c-0.9,0-1,0.1-1.6,0l0.1,6.3c1.3,0.2,2,0.2,3.3,0.2
		c9.5,0,9.3-4.4,9.3-8.4v-8.1V18.9v-5.8V12h-11.6v6.9h4.6v11.9V38.1z"/>
	<rect x="205.4" y="1.9" class="st0" width="9.4" height="6.9"/>
	<path class="st0" d="M192,47.5h6.9v-36c0.4,0.1,0.8,0.2,1.2,0.2c2.2,0,4-1.8,4-4c0-2.2-1.8-4-4-4c-0.4,0-0.8,0.1-1.2,0.2V0.6H192
		v9.1h-2.6v6.9h2.6V47.5z"/>
	<path class="st0" d="M178.1,25.2v22.3h6.9V20c0.2-0.2,0.4-0.4,0.6-0.6c1.4-1.3,1.4-1.3,2.6-2.4l-5.1-4.7c-2.1,2.8-5.2,5.1-9.3,7.1
		c0.8,2.6,1.1,4.5,1.4,7.3C176.2,26.3,177.2,25.8,178.1,25.2z"/>
	<polygon class="st0" points="200.2,20.7 200.2,38.4 206.7,36.6 202.8,20.7 	"/>
	<polygon class="st0" points="188,20.7 185.6,36.6 190.9,38.4 190.9,20.7 	"/>
	<path class="st0" d="M103.6,40.9h-2.8v5.1h28.3c0.7,0.9,1.8,1.5,3.1,1.5c2.2,0,4-1.8,4-4c0-2.2-1.8-4-4-4c-1.2,0-2.3,0.6-3.1,1.5
		h-20.3c0.3-0.6,0.7-1.3,1-1.9h28.2v-4.4H97.7V39h7C104.3,39.7,104,40.3,103.6,40.9z"/>
	<path class="st0" d="M135,22.8c-0.2-0.3-0.3-0.7-0.3-1.3v-4.6v-2.6v-3.1V9.8h-5.3c0.1-0.6,0.1-1.2,0.1-1.8h-4.7
		c0,0.5-0.1,1.1-0.1,1.8h-5.6v4.6h4.6c-0.3,1-0.6,2.1-0.9,3.1l-1.1-1l-3.2,3.6l2.4,2.2c-0.7,1.3-1.3,2.3-1.8,2.6
		c1.7,1.4,4.4,3.1,4.4,3.1s0.5-0.9,1.1-2.4l2.4,2.1l2.9-3.2c0.4,1.9,1.7,3.4,6.7,3.4c1,0,1.1,0,2.1-0.2l0-4.4c-0.4,0.1-0.2,0-0.8,0
		C136.4,23.4,135.4,23.5,135,22.8z M126.4,20.8c0.7-2,1.5-4.2,2-6.4h1.1v2.6v5.2c0,0.5,0,1,0,1.6L126.4,20.8z"/>
	<polygon class="st0" points="138.1,2.2 128.2,2.2 128.2,0.4 121.2,0.4 121.2,2.2 113.5,2.2 113.5,0.4 106.6,0.4 106.6,2.2 
		97.7,2.2 97.7,6.9 138.1,6.9 	"/>
	<path class="st0" d="M98.7,24v3.9h17.8V24h-6.4v-1.1h3.5v-1.2c0.7,0.2,1.6,0.3,2.7,0.3c0.8,0,0.8,0,1.5-0.1l0-3.5
		c-0.3,0.1-0.1,0-0.6,0c-1,0-1.7,0.1-2.1-0.5c-0.1-0.2-0.2-0.5-0.2-0.9h1.5v-3.6h-6.4v-1.1h6.4V8.9h-6.4V7.6h-4.9v1.3h-6.4v3.4h6.4
		v1.1h-6.4V17h2c-1.1,1.4-2.3,2.7-3,3.4c0.7,0.9,1.5,2.3,2,3.4c0.4-0.4,1.1-1.2,1.9-2.1v1.2h3.5V24H98.7z M103.7,19.3
		c0.7-0.9,1.3-1.7,1.6-2.3h5.8v0.4c0,0.6,0,1.3,0.1,1.9h-1.1v-1.2h-4.9v1.2H103.7z"/>
	<rect x="102.6" y="29.1" class="st0" width="30.4" height="4.3"/>
	<path class="st0" d="M78.5,196.8v-17.7h4.8v-7.1h-4.8V165h-7.5v7.1h-4.6v7.1h4.6v19.4c0,3.1,0,5,0.5,6.3c1.5,3.8,6.6,3.8,8.3,3.8
		c1.7,0,3.2-0.1,5.4-0.5v-6.2c-1.1,0.3-1.9,0.4-3.1,0.4C78.5,202.3,78.5,200.6,78.5,196.8z"/>
	<path class="st0" d="M142.7,182.5c-0.6-0.9-3.7-5.7-12-5.7c-8.8,0-15.7,5.7-15.7,16c0,11.3,7.3,16.4,15.5,16.4
		c6.5,0,10.1-2.3,11.6-4l-2.6-5.8c-0.9,1.3-3.1,2.6-8.3,2.6c-5.1,0-7.4-2.7-8.3-7.6h22.5C145.5,191.4,145.2,186.1,142.7,182.5z
		 M123.3,189.1c0.9-4.2,3.7-6.5,7.7-6.5c3.3,0,7.1,1.7,7.8,6.5H123.3z"/>
</g>
</svg>
