<?xml version="1.0" encoding="UTF-8" standalone="no"?>
<svg width="1167px" height="286px" viewBox="0 0 1167 286" version="1.1" xmlns="http://www.w3.org/2000/svg" xmlns:xlink="http://www.w3.org/1999/xlink">
    <!-- Generator: Sketch 43.2 (39069) - http://www.bohemiancoding.com/sketch -->
    <title>無情小姐</title>
    <desc>Created with Sketch.</desc>
    <defs></defs>
    <g id="Page-1" stroke="none" stroke-width="1" fill="none" fill-rule="evenodd">
        <g id="Desktop-HD-Copy-4" transform="translate(-150.000000, -105.000000)" fill="#FFFFFF">
            <path d="M158.427496,301.48 L157.797496,300.85 L202.212496,300.85 L202.212496,228.4 L165.672496,228.4 L165.042496,227.77 L202.212496,227.77 L202.212496,177.685 C185.517496,192.805 167.562496,206.665 150.867496,217.06 L150.237496,216.115 C174.177496,186.505 199.692496,142.405 216.702496,105.865 L217.647496,105.865 C230.562496,112.795 244.737496,120.355 257.967496,128.545 L257.967496,129.175 C253.242496,131.695 248.517496,134.53 243.792496,137.365 C236.862496,144.925 228.987496,153.115 220.482496,160.99 L372.942496,160.99 C379.242496,151.855 386.172496,141.775 392.472496,133.27 C402.867496,141.145 414.522496,150.595 427.122496,161.62 L377.352496,161.62 L377.352496,227.77 C383.022496,219.265 388.062496,210.76 393.732496,202.885 C403.497496,210.445 412.947496,218.95 423.027496,228.4 L377.352496,228.4 L377.352496,300.85 L384.282496,300.85 C390.582496,291.715 396.567496,282.265 402.867496,273.445 C413.262496,281.95 423.657496,290.77 435.312496,301.48 L158.427496,301.48 Z M232.767496,161.62 L232.767496,227.77 L251.982496,227.77 L251.982496,161.62 L232.767496,161.62 Z M280.962496,227.77 L298.287496,227.77 L298.287496,161.62 L280.962496,161.62 L280.962496,227.77 Z M327.267496,227.77 L346.797496,227.77 L346.797496,161.62 L327.267496,161.62 L327.267496,227.77 Z M232.767496,228.4 L232.767496,300.85 L251.982496,300.85 L251.982496,228.4 L232.767496,228.4 Z M298.287496,228.4 L280.962496,228.4 L280.962496,300.85 L298.287496,300.85 L298.287496,228.4 Z M327.267496,228.4 L327.267496,300.85 L346.797496,300.85 L346.797496,228.4 L327.267496,228.4 Z M217.647496,313.765 C212.607496,339.595 186.777496,356.92 171.027496,364.795 C165.987496,367.315 162.522496,371.095 162.522496,376.765 C162.522496,383.065 168.507496,390.94 177.957496,390.94 C189.612496,390.94 204.417496,382.12 211.977496,363.535 C217.017496,351.25 218.907496,331.09 218.592496,313.765 L217.647496,313.765 Z M246.942496,315.025 L245.997496,315.97 C256.392496,337.705 256.392496,359.44 256.392496,376.135 C256.392496,381.49 259.857496,385.27 264.897496,385.27 C275.292496,385.27 286.947496,372.04 286.947496,361.015 C286.947496,353.455 283.797496,347.155 280.332496,342.115 C273.402496,332.035 259.227496,321.64 246.942496,315.025 Z M300.492496,315.34 L299.547496,316.285 C313.092496,335.815 314.037496,356.92 315.297496,375.82 C315.612496,381.175 318.447496,384.955 323.802496,384.955 C334.827496,384.955 346.482496,371.725 346.482496,360.7 C346.482496,353.14 343.647496,348.1 338.607496,342.115 C330.417496,332.665 313.407496,321.64 300.492496,315.34 Z M349.317496,315.34 L348.372496,316.285 C371.682496,335.815 383.967496,358.81 389.322496,382.435 C390.582496,387.79 392.787496,390.31 398.142496,390.31 C407.277496,390.31 417.672496,376.45 417.672496,365.425 C417.672496,357.55 415.467496,351.565 409.797496,345.895 C396.567496,332.98 375.777496,322.9 349.317496,315.34 Z M539.442498,226.195 L538.812498,225.565 L609.372498,225.565 L609.372498,188.395 L564.012498,188.395 L563.382498,187.765 L609.372498,187.765 L609.372498,154.375 L548.577498,154.375 L547.947498,153.745 L609.372498,153.745 L609.372498,105.55 L610.317498,105.55 C622.917498,109.96 638.352498,115.945 652.527498,122.56 L652.527498,123.19 C648.747498,126.34 645.597498,128.86 642.447498,131.695 L642.447498,153.745 L671.112498,153.745 L689.067498,129.175 C699.147498,137.05 709.542498,145.24 719.307498,154.375 L642.447498,154.375 L642.447498,187.765 L662.922498,187.765 C669.222498,179.26 673.947498,171.7 680.247498,163.195 C690.327498,171.07 700.722498,179.26 710.487498,188.395 L642.447498,188.395 L642.447498,225.565 L677.097498,225.565 C683.397498,217.375 689.697498,208.24 695.682498,200.05 C705.762498,207.61 717.417498,217.06 727.182498,226.195 L539.442498,226.195 Z M558.342498,202.255 C558.342498,211.705 549.837498,219.895 538.812498,219.895 C534.087498,219.895 532.197498,216.745 532.197498,212.335 C532.197498,201.625 531.252498,191.545 525.582498,181.78 L525.582498,373.615 L524.952498,374.245 C515.187498,378.655 503.847498,382.435 493.137498,385.9 L492.507498,385.585 L492.507498,109.96 L493.452498,109.96 C506.682498,115 521.172498,120.67 535.347498,127.285 L535.347498,127.915 C531.882498,131.065 528.732498,133.585 525.582498,136.105 L525.582498,177.055 C540.387498,182.095 558.342498,190.915 558.342498,202.255 Z M476.757498,178 C474.237498,199.105 466.047498,215.17 453.132498,228.085 C449.352498,231.865 446.832498,235.96 446.832498,241 C446.832498,245.725 449.982498,252.97 459.117498,252.97 C475.497498,252.97 485.577498,236.59 485.577498,217.375 C485.577498,203.515 481.167498,188.395 478.332498,178 L476.757498,178 Z M669.222498,236.59 L670.167498,236.59 C680.877498,243.205 691.587498,250.135 702.297498,258.01 L702.297498,258.955 L691.272498,268.405 L691.587498,352.51 C691.587498,370.465 676.152498,382.435 652.212498,389.05 L651.582498,388.42 C646.857498,370.465 636.777498,356.92 614.727498,348.73 L614.727498,347.785 C628.272498,348.415 643.392498,349.36 656.937498,349.36 L658.197498,348.1 L658.197498,315.655 L595.512498,315.655 L595.512498,373.93 L594.882498,374.56 C585.432498,378.97 574.722498,383.065 563.067498,386.845 L562.437498,386.53 L562.437498,235.015 L563.382498,235.015 C573.147498,239.74 584.172498,245.725 595.512498,251.71 L658.197498,251.71 L669.222498,236.59 Z M658.197498,252.34 L595.512498,252.34 L595.512498,282.265 L658.197498,282.265 L658.197498,252.34 Z M595.512498,315.025 L658.197498,315.025 L658.197498,282.895 L595.512498,282.895 L595.512498,315.025 Z M867.8525,106.81 L868.7975,106.81 C882.6575,112.48 895.5725,117.835 910.0625,125.08 L910.0625,125.71 C906.5975,129.175 903.7625,131.695 900.9275,134.215 L901.2425,348.73 C901.2425,370.15 885.1775,382.75 857.1425,389.05 L856.5125,388.42 C850.2125,364.795 834.1475,352.825 808.3175,344.005 L808.3175,343.06 C829.1075,344.32 848.9525,345.58 866.5925,345.58 L867.8525,344.32 L867.8525,106.81 Z M848.0075,200.05 L848.0075,200.68 C842.9675,203.515 840.4475,205.405 836.0375,207.925 C816.5075,252.97 784.3775,295.81 739.6475,329.83 L739.0175,328.885 C768.6275,286.99 790.3625,229.345 803.9075,178.315 L804.8525,178.315 C818.3975,184.615 833.5175,192.175 848.0075,200.05 Z M985.9775,313.765 C999.2075,313.765 1013.6975,298.33 1013.6975,283.84 C1013.6975,275.965 1011.1775,269.98 1007.0825,262.42 C991.9625,234.7 954.4775,203.515 924.8675,183.67 L922.9775,185.245 C954.4775,218.005 969.5975,261.79 975.2675,302.74 C976.2125,309.67 979.0475,313.765 985.9775,313.765 Z M1126.6475,342.115 C1122.5525,335.815 1118.1425,329.83 1113.1025,324.16 C1094.5175,349.675 1065.8525,372.04 1033.0925,387.79 L1031.8325,386.215 C1051.3625,372.04 1079.3975,340.54 1094.5175,306.835 C1081.6025,297.385 1065.5375,288.25 1044.4325,279.745 C1051.6775,251.395 1057.9775,222.1 1063.3325,192.175 L1030.8875,192.175 L1030.2575,191.545 L1063.6475,191.545 C1068.6875,164.14 1073.0975,136.105 1076.8775,107.755 L1077.8225,107.755 C1090.4225,112.795 1103.9675,118.465 1118.4575,125.395 L1118.4575,126.025 L1109.9525,133.9 C1106.1725,153.115 1102.0775,172.33 1097.9825,191.545 L1118.1425,191.545 C1121.9225,185.875 1126.0175,179.26 1130.1125,173.59 L1131.0575,173.59 C1141.1375,179.89 1152.7925,188.08 1163.5025,195.955 L1163.5025,196.9 C1160.0375,199.42 1155.9425,201.94 1152.4775,203.83 C1149.9575,235.33 1141.7675,270.925 1127.9075,299.905 C1145.5475,307.15 1154.3675,315.655 1154.3675,328.57 C1154.3675,339.91 1144.9175,351.565 1136.7275,351.565 C1131.3725,351.565 1129.4825,346.84 1126.6475,342.115 Z M1293.5975,348.415 C1300.5275,355.345 1308.4025,363.535 1316.5925,373.615 L1118.1425,373.615 L1117.5125,372.985 L1167.5975,372.985 L1167.5975,118.465 L1168.5425,118.465 C1177.9925,123.19 1189.3325,128.86 1200.6725,135.16 L1246.0325,135.16 L1258.0025,119.41 L1258.9475,119.41 C1268.7125,126.025 1279.4225,132.955 1290.1325,140.83 L1290.1325,141.775 C1286.3525,145.24 1282.5725,148.075 1279.1075,151.225 L1279.4225,372.355 C1284.4625,363.535 1288.5575,356.92 1293.5975,348.415 Z M1246.0325,135.79 L1200.6725,135.79 L1200.6725,211.705 L1246.0325,211.705 L1246.0325,135.79 Z M1118.1425,192.175 L1097.9825,192.175 C1091.0525,223.36 1083.8075,254.545 1075.6175,285.73 C1084.7525,287.62 1092.9425,289.51 1100.1875,291.4 C1110.2675,263.365 1115.9375,221.47 1118.1425,192.175 Z M1200.6725,212.335 L1200.6725,283.525 L1246.0325,283.525 L1246.0325,212.335 L1200.6725,212.335 Z M1200.6725,284.155 L1200.6725,372.985 L1246.0325,372.985 L1246.0325,284.155 L1200.6725,284.155 Z" id="無情小姐"></path>
        </g>
    </g>
</svg>