<?xml version="1.0" encoding="utf-8"?>
<!-- Generator: Adobe Illustrator 21.1.0, SVG Export Plug-In . SVG Version: 6.00 Build 0)  -->
<svg version="1.1" id="Layer_1" xmlns="http://www.w3.org/2000/svg" xmlns:xlink="http://www.w3.org/1999/xlink" x="0px" y="0px"
	 viewBox="0 0 1167 393" style="enable-background:new 0 0 1167 393;" xml:space="preserve">
<style type="text/css">
	.st0{fill:#FFFFFF;}
</style>
<title>無情小姐</title>
<desc>Created with Sketch.</desc>
<g id="Page-1">
	<g id="Desktop-HD-Copy-4" transform="translate(-150.000000, -105.000000)">
		<path id="無情小姐" class="st0" d="M158.4,301.5l-0.6-0.6h44.4v-72.5h-36.5l-0.6-0.6h37.2v-50.1c-16.7,15.1-34.6,29-51.3,39.4
			l-0.6-0.9c23.9-29.6,49.5-73.7,66.5-110.3h0.9c12.9,6.9,27.1,14.5,40.3,22.7v0.6c-4.7,2.5-9.4,5.4-14.2,8.2
			c-6.9,7.6-14.8,15.8-23.3,23.6h152.5c6.3-9.1,13.2-19.2,19.5-27.7c10.4,7.9,22,17.3,34.6,28.3h-49.8v66.2
			c5.7-8.5,10.7-17,16.4-24.9c9.8,7.6,19.2,16.1,29.3,25.5h-45.7v72.5h6.9c6.3-9.1,12.3-18.6,18.6-27.4c10.4,8.5,20.8,17.3,32.4,28
			H158.4z M232.8,161.6v66.2H252v-66.2H232.8z M281,227.8h17.3v-66.2H281V227.8z M327.3,227.8h19.5v-66.2h-19.5V227.8z M232.8,228.4
			v72.5H252v-72.5H232.8z M298.3,228.4H281v72.5h17.3V228.4z M327.3,228.4v72.5h19.5v-72.5H327.3z M217.6,313.8
			c-5,25.8-30.9,43.2-46.6,51c-5,2.5-8.5,6.3-8.5,12c0,6.3,6,14.2,15.4,14.2c11.7,0,26.5-8.8,34-27.4c5-12.3,6.9-32.4,6.6-49.8
			H217.6z M246.9,315L246,316c10.4,21.7,10.4,43.5,10.4,60.2c0,5.4,3.5,9.1,8.5,9.1c10.4,0,22.1-13.2,22.1-24.3
			c0-7.6-3.2-13.9-6.6-18.9C273.4,332,259.2,321.6,246.9,315z M300.5,315.3l-0.9,0.9c13.5,19.5,14.5,40.6,15.8,59.5
			c0.3,5.4,3.2,9.1,8.5,9.1c11,0,22.7-13.2,22.7-24.3c0-7.6-2.8-12.6-7.9-18.6C330.4,332.7,313.4,321.6,300.5,315.3z M349.3,315.3
			l-0.9,0.9c23.3,19.5,35.6,42.5,41,66.1c1.3,5.4,3.5,7.9,8.8,7.9c9.1,0,19.5-13.9,19.5-24.9c0-7.9-2.2-13.9-7.9-19.5
			C396.6,333,375.8,322.9,349.3,315.3z M539.4,226.2l-0.6-0.6h70.6v-37.2H564l-0.6-0.6h46v-33.4h-60.8l-0.6-0.6h61.4v-48.2h0.9
			c12.6,4.4,28,10.4,42.2,17v0.6c-3.8,3.1-6.9,5.7-10.1,8.5v22h28.7l18-24.6c10.1,7.9,20.5,16.1,30.2,25.2h-76.9v33.4h20.5
			c6.3-8.5,11-16.1,17.3-24.6c10.1,7.9,20.5,16.1,30.2,25.2h-68v37.2h34.6c6.3-8.2,12.6-17.3,18.6-25.5c10.1,7.6,21.7,17,31.5,26.1
			H539.4z M558.3,202.3c0,9.4-8.5,17.6-19.5,17.6c-4.7,0-6.6-3.2-6.6-7.6c0-10.7-0.9-20.8-6.6-30.6v191.8l-0.6,0.6
			c-9.8,4.4-21.1,8.2-31.8,11.7l-0.6-0.3V110h0.9c13.2,5,27.7,10.7,41.9,17.3v0.6c-3.5,3.2-6.6,5.7-9.8,8.2v40.9
			C540.4,182.1,558.3,190.9,558.3,202.3z M476.8,178c-2.5,21.1-10.7,37.2-23.6,50.1c-3.8,3.8-6.3,7.9-6.3,12.9c0,4.7,3.1,12,12.3,12
			c16.4,0,26.5-16.4,26.5-35.6c0-13.9-4.4-29-7.2-39.4H476.8z M669.2,236.6h0.9c10.7,6.6,21.4,13.5,32.1,21.4v0.9l-11,9.5l0.3,84.1
			c0,18-15.4,29.9-39.4,36.5l-0.6-0.6c-4.7-18-14.8-31.5-36.9-39.7v-0.9c13.5,0.6,28.7,1.6,42.2,1.6l1.3-1.3v-32.4h-62.7v58.3
			l-0.6,0.6c-9.5,4.4-20.2,8.5-31.8,12.3l-0.6-0.3V235h0.9c9.8,4.7,20.8,10.7,32.1,16.7h62.7L669.2,236.6z M658.2,252.3h-62.7v29.9
			h62.7V252.3z M595.5,315h62.7v-32.1h-62.7V315z M867.9,106.8h0.9c13.9,5.7,26.8,11,41.3,18.3v0.6c-3.5,3.5-6.3,6-9.1,8.5
			l0.3,214.5c0,21.4-16.1,34-44.1,40.3l-0.6-0.6c-6.3-23.6-22.4-35.6-48.2-44.4v-0.9c20.8,1.3,40.6,2.5,58.3,2.5l1.3-1.3V106.8z
			 M848,200.1v0.6c-5,2.8-7.6,4.7-12,7.2c-19.5,45-51.7,87.9-96.4,121.9l-0.6-0.9c29.6-41.9,51.3-99.5,64.9-150.6h0.9
			C818.4,184.6,833.5,192.2,848,200.1z M986,313.8c13.2,0,27.7-15.4,27.7-29.9c0-7.9-2.5-13.9-6.6-21.4
			c-15.1-27.7-52.6-58.9-82.2-78.8l-1.9,1.6c31.5,32.8,46.6,76.5,52.3,117.5C976.2,309.7,979,313.8,986,313.8z M1126.6,342.1
			c-4.1-6.3-8.5-12.3-13.5-18c-18.6,25.5-47.2,47.9-80,63.6l-1.3-1.6c19.5-14.2,47.6-45.7,62.7-79.4c-12.9-9.4-29-18.6-50.1-27.1
			c7.2-28.3,13.5-57.6,18.9-87.6h-32.4l-0.6-0.6h33.4c5-27.4,9.5-55.4,13.2-83.8h0.9c12.6,5,26.1,10.7,40.6,17.6v0.6l-8.5,7.9
			c-3.8,19.2-7.9,38.4-12,57.6h20.2c3.8-5.7,7.9-12.3,12-18h0.9c10.1,6.3,21.7,14.5,32.4,22.4v0.9c-3.5,2.5-7.6,5-11,6.9
			c-2.5,31.5-10.7,67.1-24.6,96.1c17.6,7.2,26.5,15.8,26.5,28.7c0,11.3-9.5,23-17.6,23C1131.4,351.6,1129.5,346.8,1126.6,342.1z
			 M1293.6,348.4c6.9,6.9,14.8,15.1,23,25.2h-198.5l-0.6-0.6h50.1V118.5h0.9c9.5,4.7,20.8,10.4,32.1,16.7h45.4l12-15.8h0.9
			c9.8,6.6,20.5,13.5,31.2,21.4v0.9c-3.8,3.5-7.6,6.3-11,9.5l0.3,221.1C1284.5,363.5,1288.6,356.9,1293.6,348.4z M1246,135.8h-45.4
			v75.9h45.4V135.8z M1118.1,192.2H1098c-6.9,31.2-14.2,62.4-22.4,93.6c9.1,1.9,17.3,3.8,24.6,5.7
			C1110.3,263.4,1115.9,221.5,1118.1,192.2z M1200.7,212.3v71.2h45.4v-71.2H1200.7z M1200.7,284.2V373h45.4v-88.8H1200.7z"/>
	</g>
</g>
<g>
	<path class="st0" d="M371.5,324.6c-0.6,0.3-14.7,6.4-14.7,30.2s14,30,14.7,30.2c-0.9-0.3-18.6-5.7-18.6-30.2
		C352.9,330.3,370.6,324.9,371.5,324.6z"/>
	<path class="st0" d="M399.9,368.5v-38.9l-7.2-4h10.7l18.4,40.5l18.7-40.5h10.8l-7.2,4v38.9l7.2,4h-18l7.2-4v-36.9l-19.4,42
		l-18.7-41.4v36.4l7.2,4h-16.9L399.9,368.5z"/>
	<path class="st0" d="M453.5,341.9l9.4-2.9v30.2l5.8,3.2h-15.1l5.8-3.2v-25.6L453.5,341.9z M456.7,328.2c0,2,1.6,3.6,3.6,3.6
		s3.6-1.6,3.6-3.6c0-2-1.6-3.6-3.6-3.6S456.7,326.2,456.7,328.2z"/>
	<path class="st0" d="M493.1,350.2l-3.2-5.8c0,0-2.2-3.2-7.2-3.2c-4.8,0-7.6,2.5-7.6,5.4c0,7.9,19.8,5.2,19.8,17.1
		c0,6.5-5,9.9-10.8,9.9c-6.7,0-8.9-4-9-4.2l-2.5,4.2v-14l3.1,6.5c2.3,4.8,6.3,5.4,8.4,5.4c3.2,0,7.6-1.8,7.6-6.6
		c0-9.3-19.4-6.3-19.4-17.1c0-5.3,4.7-8.6,10.4-8.6c5,0,7.6,2.9,7.6,2.9l2.9-2.9V350.2z"/>
	<path class="st0" d="M520.8,350.2l-3.2-5.8c0,0-2.2-3.2-7.2-3.2c-4.8,0-7.6,2.5-7.6,5.4c0,7.9,19.8,5.2,19.8,17.1
		c0,6.5-5,9.9-10.8,9.9c-6.7,0-8.9-4-9-4.2l-2.5,4.2v-14l3.1,6.5c2.3,4.8,6.3,5.4,8.4,5.4c3.2,0,7.6-1.8,7.6-6.6
		c0-9.3-19.4-6.3-19.4-17.1c0-5.3,4.7-8.6,10.4-8.6c5,0,7.6,2.9,7.6,2.9l2.9-2.9V350.2z"/>
	<path class="st0" d="M541.7,372.5l7.2-4v-38.9l-7.2-4h20.2c10.4,0,16.6,5.4,16.6,12.6c0,6.3-4.6,11.1-12.5,12.3l13.5,17.9l6.6,4
		h-8.1l-16.2-21.6h-9.1v17.6l8.6,4H541.7z M552.5,348.4h9.4c7.9,0,12.6-4,12.6-10.1c0-6.1-4.7-10.1-12.6-10.1H555l-2.5,1.4V348.4z"
		/>
	<path class="st0" d="M603.3,341.9l9.4-2.9v29.9l5.8,1.8l-9.4,2.9v-6.7c-2.5,2.7-7.2,6.7-12.2,6.7c-5,0-9-2.9-9-10.8v-19.1l-5.8-1.8
		l9.4-2.9v22.7c0,5.8,2.2,9.1,6.8,9.1c4.3,0,8.6-3.5,10.8-6.1v-21L603.3,341.9z"/>
	<path class="st0" d="M628.5,332.5v7.6h8.3v2.2h-8.3V366c0,2.9,1.1,5,3.6,5c2.9,0,4.6-2.7,4.7-2.8c-0.1,0.5-2.2,5.3-6.1,5.3
		c-3.6,0-5.8-2.2-5.8-7.6v-23.8H618L628.5,332.5z"/>
	<path class="st0" d="M639.3,323.9l9.4-2.9v24.7c2.5-2.7,7.2-6.7,12.2-6.7c5,0,9,2.9,9,10.8v19.4l5.8,3.2h-15.1l5.8-3.2v-18.4
		c0-5.8-2.2-9.1-6.8-9.1c-4.3,0-8.6,3.5-10.8,6.1v21.4l5.8,3.2h-15.1l5.8-3.2v-43.6L639.3,323.9z"/>
	<path class="st0" d="M676,323.9l9.4-2.9v48.2l5.8,3.2H676l5.8-3.2v-43.6L676,323.9z"/>
	<path class="st0" d="M696.6,353c-0.1,0.7-0.1,1.4-0.1,2.1c0,10.7,6.1,15.2,13.3,15.2c7.9,0,11.2-7.2,11.2-7.2s-2.2,10.4-13,10.4
		c-9.4,0-15.1-7.6-15.1-17.3c0-10.5,7.1-17.3,15.7-17.3c9.1,0,12.4,6.1,12.4,14H696.6z M696.9,350.9h14c3.6,0,6.1-0.4,6.1-3.2
		c0-3.6-3.5-6.9-8.6-6.9C703.9,340.7,698.5,344,696.9,350.9z"/>
	<path class="st0" d="M746.5,350.2l-3.2-5.8c0,0-2.2-3.2-7.2-3.2c-4.8,0-7.6,2.5-7.6,5.4c0,7.9,19.8,5.2,19.8,17.1
		c0,6.5-5,9.9-10.8,9.9c-6.7,0-8.9-4-9-4.2l-2.5,4.2v-14l3.1,6.5c2.3,4.8,6.3,5.4,8.4,5.4c3.2,0,7.6-1.8,7.6-6.6
		c0-9.3-19.4-6.3-19.4-17.1c0-5.3,4.7-8.6,10.4-8.6c5,0,7.6,2.9,7.6,2.9l2.9-2.9V350.2z"/>
	<path class="st0" d="M774.3,350.2l-3.2-5.8c0,0-2.2-3.2-7.2-3.2c-4.8,0-7.6,2.5-7.6,5.4c0,7.9,19.8,5.2,19.8,17.1
		c0,6.5-5,9.9-10.8,9.9c-6.7,0-8.9-4-9-4.2l-2.5,4.2v-14l3.1,6.5c2.3,4.8,6.3,5.4,8.4,5.4c3.2,0,7.6-1.8,7.6-6.6
		c0-9.3-19.4-6.3-19.4-17.1c0-5.3,4.7-8.6,10.4-8.6c5,0,7.6,2.9,7.6,2.9l2.9-2.9V350.2z"/>
	<path class="st0" d="M795.5,385.1c0.6-0.3,14.7-6.4,14.7-30.2s-14-30-14.7-30.2c0.9,0.3,18.6,5.7,18.6,30.2
		C814.1,379.4,796.4,384.8,795.5,385.1z"/>
</g>
</svg>
